<svg xmlns="http://www.w3.org/2000/svg" id="icon-cart" width="40" height="40" viewBox="0 0 40 40" x="280" y="0">
<path d="M32.16 25.68l5-15.16c0.12-0.28 0.080-0.6-0.080-0.88s-0.48-0.48-0.84-0.48h-26.28l-1.12-3.32c-0.040-0.16-0.080-0.32-0.2-0.44-0.2-0.24-0.52-0.36-0.84-0.36h-4.2c-0.28 0-0.56 0.080-0.76 0.28s-0.28 0.48-0.28 0.76c0 0.48 0.36 0.88 1 1h3.64l7.6 23.16c0 0.36 0.2 0.68 0.48 0.88-0.2 0.32-0.36 0.64-0.44 1-0.12 0.72 0.040 1.48 0.48 2.080 0.36 0.6 0.96 1 1.64 1.12 0.72 0.12 1.48-0.040 2.080-0.44 0.56-0.36 1-0.96 1.12-1.64s0-1.36-0.36-1.92h7c-0.52 0.92-0.52 2.040 0.080 2.92 0.48 0.76 1.32 1.2 2.2 1.16 0.52 0 1.080-0.16 1.52-0.44 0.56-0.36 0.96-0.96 1.12-1.6 0.16-0.68 0-1.44-0.36-2.040 0.52-0.040 0.92-0.48 0.92-1 0-0.28-0.080-0.56-0.28-0.76s-0.48-0.32-0.76-0.28h-14.72l-0.92-2.84 15.6-0.080c0.44 0 0.8-0.28 0.96-0.68zM28.32 32.6c0-0.36 0.32-0.68 0.68-0.68s0.68 0.32 0.68 0.68-0.32 0.68-0.68 0.68-0.68-0.28-0.68-0.68v0zM17.36 21.44v2.96h-2.28l-1-2.92h3.28zM17.36 16.040v3.44h-3.92l-1.12-3.44h5.040zM10.64 11.080h6.68v2.92h-5.76l-0.92-2.92zM16.8 32.6c0.040-0.36 0.32-0.64 0.68-0.64s0.68 0.32 0.68 0.68c0 0.36-0.32 0.68-0.68 0.68s-0.68-0.28-0.68-0.68v-0.040zM19.32 14v-2.92h6.88v2.92h-6.88zM19.32 19.52v-3.48h6.88v3.44l-6.88 0.040zM19.32 24.44v-3.040h6.88v3l-6.88 0.040zM28.16 14.12v-3.040h6.76l-1 3-5.76 0.040zM28.16 19.44v-3.48h5.080l-1.12 3.44-3.96 0.040zM28.16 24.44v-3.040h3.32l-0.92 3-2.4 0.040z"/>
</svg>