<svg xmlns="http://www.w3.org/2000/svg" id="icon-close" width="40" height="40" viewBox="0 0 40 40" x="360" y="0">
<path fill="#fff" d="M21.76 20.24l9.52-9.52c0.56-0.56 0.6-1.52 0-2.080-0.56-0.56-1.52-0.6-2.080 0l-9.56 9.48-9.48-9.48c-0.56-0.56-1.52-0.56-2.080 0s-0.56 1.52 0 2.080l9.52 9.52-9.52 9.48c-0.28 0.28-0.44 0.64-0.44 1.040s0.16 0.76 0.44 1.040 0.64 0.44 1.040 0.44 0.76-0.16 1.040-0.44l9.48-9.52 9.52 9.52c0.28 0.28 0.64 0.44 1.040 0.44s0.76-0.16 1.040-0.44 0.44-0.64 0.44-1.040-0.16-0.76-0.44-1.040l-9.48-9.48z"/>
</svg>