<svg xmlns="http://www.w3.org/2000/svg" id="icon-location" width="40" height="40" viewBox="0 0 40 40" x="160" y="40">
<path d="M19.6 1.6c7.52 0 13.6 6.080 13.6 13.6 0 6.52-4.36 14.24-12.92 22.8-0.16 0.16-0.4 0.28-0.68 0.28v0h-0.16c-0.2-0.040-0.36-0.12-0.52-0.28-8.56-8.56-12.92-16.24-12.92-22.8 0-7.52 6.080-13.6 13.6-13.6zM19.6 3.48c-6.48 0-11.72 5.24-11.72 11.72 0 5.92 3.96 12.92 11.72 20.84 7.68-7.88 11.72-15.080 11.72-20.84 0-6.48-5.24-11.72-11.72-11.72zM19.6 7.4c3.76 0 6.8 3.040 6.8 6.8 0 2.76-1.64 5.24-4.2 6.28s-5.48 0.48-7.4-1.48-2.56-4.84-1.48-7.4 3.52-4.2 6.28-4.2zM21.48 9.64c-1.84-0.76-3.96-0.36-5.36 1.080s-1.84 3.52-1.080 5.36c0.76 1.84 2.56 3.040 4.56 3.040v0-0.040c2.68 0 4.88-2.16 4.92-4.88 0-1.96-1.2-3.76-3.040-4.56z"/>
</svg>