<svg xmlns="http://www.w3.org/2000/svg" id="icon-user" width="40" height="40" viewBox="0 0 40 40" x="160" y="80">
<path d="M19.92 2c-7.24 0-13.76 4.36-16.56 11.040s-1.24 14.4 3.88 19.52 12.8 6.64 19.52 3.88 11.040-9.28 11.040-16.52c0-9.88-8-17.92-17.88-17.92zM19.92 35.72c-3.56 0-7-1.2-9.8-3.4 2.56-0.84 4.84-2.44 6.52-4.52 0.96 0.44 2 0.68 3.040 0.72h0.24c1.12 0 2.24-0.24 3.24-0.72 1.68 2.12 3.96 3.68 6.52 4.52-2.76 2.2-6.2 3.4-9.76 3.4v0zM22.28 25.96c-0.76 0.4-1.6 0.56-2.44 0.56-1.36 0.040-2.64-0.52-3.6-1.48-2.2-2.52-1.76-7.32-1.76-7.44v-0.12c0.2-4.76 3.24-5.48 5.040-5.48h0.44c1.8 0 4.88 0.72 5.080 5.48v0.12c0.080 0.84 0.32 5.080-1.68 7.32-0.28 0.32-0.6 0.6-1 0.8h-0.080v0.24zM31.44 30.76c-4.2-1.44-5.88-3.16-6.64-4.24l0.12-0.12c2.52-2.8 2.32-7.56 2.24-8.92v-0.12c-0.24-5.52-3.88-7.48-7.16-7.48h-0.44c-3.28 0-6.88 1.96-7.12 7.48 0 0.24-0.52 5.8 2.28 9v0l0.2 0.2c-0.8 1.16-2.76 2.8-6.56 4.16-5.88-6.28-5.68-16.12 0.48-22.16s16-6.040 22.16 0 6.36 15.88 0.44 22.16v0.040z"/>
</svg>